File: iguana-butch.xvid.avi
Size: 734117888 bytes (700.11 MiB), duration: 01:27:03, avg.bitrate: 1124 kb/s
Audio: mp3, 48000 Hz, stereo, 128 kb/s
Video: mpeg4, yuv420p, 640×272, 23.98 fps(r)

Genre :Horror
Subtitles : N/A
 
http://www.imdb.com/title/tt0902262/



A group of teens decides to spend the weekend on a local island to say their final 
goodbyes before heading off to college. Little do they know, a convicted serial killer 
escapes from the authorities while on death row at a maximum security prison. Touted in 
the headlines of the local papers as "The Butcher" due to the manner he hacked up his 
victims in the local town deli, he takes cover on THE VERY SAME ISLAND. It becomes a 
battle for survival as the teens attempt to fight back against this unimaginable foe. 
Written by Shaun O'Rourke 

Format : AVI
Format/Info : Audio Video Interleave
File size : 700 MiB
Duration : 1h 27mn
Overall bit rate : 1 124 Kbps
Writing application : VirtualDubMod 1.5.10.2 (build 2540/release)
Writing library : VirtualDubMod build 2540/release

Video
ID : 0
Format : MPEG-4 Visual
Format profile : Advanced Simple@L5
Format settings, BVOP : Yes
Format settings, QPel : No
Format settings, GMC : No warppoints
Format settings, Matrix : Default (H.263)
Muxing mode : Packed bitstream
Codec ID : XVID
Codec ID/Hint : XviD
Duration : 1h 27mn
Bit rate : 983 Kbps
Width : 640 pixels
Height : 272 pixels
Display aspect ratio : 2.35:1
Frame rate : 23.976 fps
Color space : YUV
Chroma subsampling : 4:2:0
Bit depth : 8 bits
Scan type : Progressive
Bits/(Pixel*Frame) : 0.236
Stream size : 612 MiB (87%)
Writing library : XviD 1.2.1 (UTC 2008-12-04)

Audio
ID : 1
Format : MPEG Audio
Format version : Version 1
Format profile : Layer 3
Mode : Joint stereo
Mode extension : MS Stereo
Codec ID : 55
Codec ID/Hint : MP3
Duration : 1h 27mn
Bit rate mode : Variable
Bit rate : 128 Kbps
Channel(s) : 2 channels
Sampling rate : 48.0 KHz
Stream size : 80.0 MiB (11%)
Alignment : Aligned on interleaves
Interleave, duration : 24 ms (0.58 video frame)
Interleave, preload duration : 445 ms
Writing library : LAME3.90.
Encoding settings : -m j -V 4 -q 2 -lowpass 17.6 --abr 128